<svg id="Layer_4" data-name="Layer 4" xmlns="http://www.w3.org/2000/svg" viewBox="0 0 358.15 64.26"><defs><style>.cls-1{fill:#13518d;}.cls-2{fill:#a7c53c;}.cls-3{fill:#77ad45;}.cls-4{fill:#6695bb;}</style></defs><path class="cls-1" d="M235.88,34.51h21.91v3.11H239.3V48h16.54v3.12H239.3V61.7H258v3.12H235.88Z" transform="translate(-14.59 -13.04)"/><path class="cls-1" d="M262.69,42.43H266v3.9A8.47,8.47,0,0,1,273.69,42c5.41,0,8.57,3.64,8.57,9v13.9h-3.33V51.74c0-4.16-2.25-6.75-6.19-6.75S266,47.8,266,52V64.82h-3.33Z" transform="translate(-14.59 -13.04)"/><path class="cls-1" d="M288.37,68.72l1.51-2.6A14.35,14.35,0,0,0,298.5,69c4.94,0,8.14-2.73,8.14-8V58.37a10.63,10.63,0,0,1-8.79,4.72,10.35,10.35,0,0,1-10.52-10.48v-.09a10.6,10.6,0,0,1,19.27-6.06v-4h3.33V60.92a10.82,10.82,0,0,1-2.85,7.93c-2,2-5,3-8.54,3A17.6,17.6,0,0,1,288.37,68.72Zm18.36-16.16v-.08c0-4.59-4-7.58-8.23-7.58a7.4,7.4,0,0,0-7.75,7.53v.09a7.58,7.58,0,0,0,7.75,7.62C302.74,60.14,306.73,57.07,306.73,52.56Z" transform="translate(-14.59 -13.04)"/><path class="cls-1" d="M316.08,33.86h3.81v3.68h-3.81Zm.22,8.57h3.33V64.82H316.3Z" transform="translate(-14.59 -13.04)"/><path class="cls-1" d="M326.65,42.43H330v3.9A8.47,8.47,0,0,1,337.65,42c5.42,0,8.58,3.64,8.58,9v13.9h-3.34V51.74c0-4.16-2.25-6.75-6.19-6.75S330,47.8,330,52V64.82h-3.34Z" transform="translate(-14.59 -13.04)"/><path class="cls-1" d="M362.82,62.44a9.28,9.28,0,0,0,7.06-3.16L372,61.14a11.56,11.56,0,0,1-9.23,4.2c-6.15,0-11.17-4.72-11.17-11.69,0-6.5,4.55-11.7,10.74-11.7,6.63,0,10.44,5.29,10.44,11.87a11.05,11.05,0,0,1-.05,1.17H354.94A7.82,7.82,0,0,0,362.82,62.44Zm6.54-10.14c-.39-4.07-2.73-7.53-7.15-7.53-3.85,0-6.8,3.2-7.27,7.53Z" transform="translate(-14.59 -13.04)"/><path class="cls-1" d="M95.52,34.5h6.67V64.82H95.52Z" transform="translate(-14.59 -13.04)"/><path class="cls-1" d="M108.81,41.61h6.59V44.9c1.51-1.95,3.5-3.73,6.84-3.73a7,7,0,0,1,6.54,3.68,9.55,9.55,0,0,1,7.62-3.68c4.89,0,7.84,2.95,7.84,8.53V64.82h-6.59V51.87c0-3.12-1.38-4.72-3.85-4.72s-4,1.6-4,4.72V64.82h-6.59V51.87c0-3.12-1.38-4.72-3.85-4.72s-4,1.6-4,4.72V64.82h-6.59Z" transform="translate(-14.59 -13.04)"/><path class="cls-1" d="M148.46,58.15v-.09c0-5.07,3.86-7.4,9.36-7.4a16.56,16.56,0,0,1,5.67,1v-.39c0-2.73-1.69-4.24-5-4.24a17.07,17.07,0,0,0-6.41,1.25l-1.64-5a20.38,20.38,0,0,1,9-1.86c3.6,0,6.2.95,7.84,2.59s2.51,4.29,2.51,7.41V64.82h-6.36V62.31a9,9,0,0,1-7,2.94C152.06,65.25,148.46,62.74,148.46,58.15Zm15.12-1.52V55.46a10.22,10.22,0,0,0-4.2-.86c-2.82,0-4.55,1.12-4.55,3.2v.09c0,1.77,1.47,2.81,3.59,2.81C161.5,60.7,163.58,59,163.58,56.63Z" transform="translate(-14.59 -13.04)"/><path class="cls-1" d="M175.28,69.41l2.25-4.94a15.18,15.18,0,0,0,7.84,2.12c4.51,0,6.63-2.16,6.63-6.32V59.14a9.08,9.08,0,0,1-7.58,3.77c-5.41,0-10.31-3.94-10.31-10.82V52c0-6.93,5-10.83,10.31-10.83a9.39,9.39,0,0,1,7.49,3.47v-3h6.58v18c0,4.15-1,7.19-2.94,9.14-2.17,2.16-5.5,3.11-10,3.11A22,22,0,0,1,175.28,69.41ZM192,52.09V52a5.66,5.66,0,0,0-11.31,0v.09a5.31,5.31,0,0,0,5.64,5.37A5.36,5.36,0,0,0,192,52.09Z" transform="translate(-14.59 -13.04)"/><path class="cls-1" d="M203.13,53.34v-.09c0-6.62,4.72-12.08,11.48-12.08,7.75,0,11.3,6,11.3,12.6,0,.52,0,1.13-.09,1.74H209.67a5.38,5.38,0,0,0,5.67,4.54A7.6,7.6,0,0,0,221,57.67L224.74,61a11.61,11.61,0,0,1-9.48,4.33C208.28,65.34,203.13,60.44,203.13,53.34Zm16.37-2c-.39-2.94-2.12-4.93-4.89-4.93s-4.51,1.95-5,4.93Z" transform="translate(-14.59 -13.04)"/><rect class="cls-2" x="34.72" y="13.2" width="32.29" height="38.73"/><rect class="cls-1" x="6.14" width="22.27" height="28.71"/><rect class="cls-3" y="35.27" width="10.31" height="29"/><rect class="cls-4" x="15.34" y="35.25" width="13.08" height="16.67"/></svg>